<svg width="22.000000" height="19.318115" viewBox="0 0 22 19.3181" fill="none" xmlns="http://www.w3.org/2000/svg" xmlns:xlink="http://www.w3.org/1999/xlink">
	<desc>
			Created with Pixso.
	</desc>
	<defs/>
	<path id="Vector" d="M0 3.21973C0 1.44141 1.23108 0 2.75 0L19.25 0C20.7668 0 22 1.44141 22 3.21973L22 16.0984C22 17.8743 20.7668 19.3181 19.25 19.3181L2.75 19.3181C1.23108 19.3181 0 17.8743 0 16.0984L0 3.21973ZM2.0625 3.21973L2.0625 4.33154L9.47461 11.4551C10.3597 12.3103 11.6403 12.3103 12.5254 11.4551L19.9375 4.33154L19.9375 3.17432C19.9375 2.77686 19.6281 2.36938 19.25 2.36938L2.75 2.36938C2.37018 2.36938 2.0625 2.77686 2.0625 3.17432L2.0625 3.21973ZM2.0625 7.45557L2.0625 16.0984C2.0625 16.541 2.37018 16.9033 2.75 16.9033L19.25 16.9033C19.6281 16.9033 19.9375 16.541 19.9375 16.0984L19.9375 7.45557L13.8359 13.3215C12.1859 14.906 9.81409 14.906 8.12537 13.3215L2.0625 7.45557Z" fill="#CFCFCF" fill-opacity="1.000000" fill-rule="nonzero"/>
</svg>
