<svg width="28.996338" height="27.667480" viewBox="0 0 28.9963 27.6675" fill="none" xmlns="http://www.w3.org/2000/svg" xmlns:xlink="http://www.w3.org/1999/xlink">
	<desc>
			Created with Pixso.
	</desc>
	<defs/>
	<path id="Vector" d="M28.2101 0.302734C28.7821 0.681152 29.0823 1.33496 28.9747 1.98877L25.3497 24.4668C25.2647 24.991 24.9306 25.4502 24.4435 25.7095C23.9564 25.969 23.373 26.0015 22.8575 25.7961L15.7038 22.9592L13.4325 26.9849C13.138 27.509 12.5093 27.7737 11.9032 27.6277C11.2972 27.4819 10.8724 26.9631 10.8724 26.3689L10.8724 21.1816C10.8724 20.8953 10.9743 20.6143 11.1612 20.3872L20.5239 8.89966C20.6655 8.51587 20.1558 8.12695 19.7876 8.4458L9.64893 17.1938L7.83643 18.7554C7.31534 19.2039 6.57333 19.3281 5.92197 19.0688L1.10751 17.156C0.473145 16.9021 0.0426941 16.3293 0.00302124 15.6702C-0.0366211 15.0107 0.314545 14.3894 0.914948 14.0598L26.2899 0.227051C26.896 -0.102539 27.6436 -0.0700684 28.2157 0.302734L28.2101 0.302734Z" fill="#FFFFFF" fill-opacity="1.000000" fill-rule="nonzero"/>
</svg>
