<svg width="26.666687" height="29.333374" viewBox="0 0 26.6667 29.3334" fill="none" xmlns="http://www.w3.org/2000/svg" xmlns:xlink="http://www.w3.org/1999/xlink">
	<desc>
			Created with Pixso.
	</desc>
	<defs/>
	<path id="Vector" d="M1.33334 6.66675L1.33334 25.3334C1.33334 26.0406 1.61429 26.7189 2.11438 27.219C2.6145 27.7191 3.29276 28 4 28L22.6667 28C23.3739 28 24.0522 27.7191 24.5523 27.219C25.0524 26.7189 25.3333 26.0406 25.3333 25.3334L25.3333 6.66675L21.3333 1.33337L5.33334 1.33337L1.33334 6.66675Z" stroke="#000000" stroke-opacity="1.000000" stroke-width="2.666667" stroke-linejoin="round"/>
	<path id="Vector" d="M18.6667 12C18.6667 13.4144 18.1048 14.771 17.1046 15.7712C16.1044 16.7715 14.7478 17.3334 13.3333 17.3334C11.9189 17.3334 10.5623 16.7715 9.5621 15.7712C8.56189 14.771 8 13.4144 8 12" stroke="#000000" stroke-opacity="1.000000" stroke-width="2.666667" stroke-linejoin="round" stroke-linecap="round"/>
	<path id="Vector" d="M1.33334 6.66663L25.3333 6.66663" stroke="#000000" stroke-opacity="1.000000" stroke-width="2.666667" stroke-linejoin="round" stroke-linecap="round"/>
</svg>
