<svg width="29.000000" height="29.000000" viewBox="0 0 29 29" fill="none" xmlns="http://www.w3.org/2000/svg" xmlns:xlink="http://www.w3.org/1999/xlink">
	<desc>
			Created with Pixso.
	</desc>
	<defs/>
	<path id="Vector" d="M14.5 28C7.04416 28 1 21.9559 1 14.5C1 7.04413 7.04416 1 14.5 1C21.9558 1 28 7.04413 28 14.5C28 21.9559 21.9558 28 14.5 28Z" stroke="#000000" stroke-opacity="1.000000" stroke-width="2.000000" stroke-linejoin="round"/>
	<path id="Vector" d="M14.5 19.9C11.5176 19.9 9.09998 17.4823 9.09998 14.5C9.09998 11.5176 11.5176 9.09998 14.5 9.09998C17.4823 9.09998 19.9 11.5176 19.9 14.5C19.9 17.4823 17.4823 19.9 14.5 19.9Z" stroke="#000000" stroke-opacity="1.000000" stroke-width="2.000000" stroke-linejoin="round"/>
	<path id="Vector" d="M18.3204 18.3204L24.0444 24.0444" stroke="#000000" stroke-opacity="1.000000" stroke-width="2.000000" stroke-linejoin="round" stroke-linecap="round"/>
	<path id="Vector" d="M4.95557 24.0444L10.6796 18.3204" stroke="#000000" stroke-opacity="1.000000" stroke-width="2.000000" stroke-linejoin="round" stroke-linecap="round"/>
	<path id="Vector" d="M18.3204 10.6796L24.0444 4.95557" stroke="#000000" stroke-opacity="1.000000" stroke-width="2.000000" stroke-linejoin="round" stroke-linecap="round"/>
	<path id="Vector" d="M18.3204 10.6796L23.0859 5.91406" stroke="#000000" stroke-opacity="1.000000" stroke-width="2.000000" stroke-linejoin="round" stroke-linecap="round"/>
	<path id="Vector" d="M4.95557 4.95557L10.6796 10.6796" stroke="#000000" stroke-opacity="1.000000" stroke-width="2.000000" stroke-linejoin="round" stroke-linecap="round"/>
</svg>
